<svg width="1209" height="74" viewBox="0 0 1209 74" fill="none" xmlns="http://www.w3.org/2000/svg">
<path d="M77.032 21.3L81.632 0.799999H102.532L83.332 72H60.932L56.532 50.9C54.432 40.9 52.832 32.2 51.732 24.9C50.432 32.8 48.832 41.5 46.832 50.9L42.432 72H20.032L0.832031 0.799999H21.732L26.332 21.3C29.232 34.3 31.232 43.8 32.332 49.8C33.832 40.5 35.632 31 37.632 21.3L41.832 0.799999H61.532L65.732 21.3C67.732 31 69.432 40.5 71.032 49.8C72.132 43.8 74.132 34.3 77.032 21.3ZM153.847 48.2V51.5H116.047C117.247 57.3 120.647 60.2 126.347 60.2C130.547 60.2 133.647 58.7 135.447 55.7H152.647C151.247 61.3 148.147 65.6 143.347 68.6C138.447 71.7 132.747 73.2 126.347 73.2C118.047 73.2 111.347 70.8 106.247 65.8C101.047 60.9 98.5469 54.4 98.5469 46.2C98.5469 38 101.047 31.5 106.147 26.6C111.147 21.7 117.847 19.2 126.147 19.2C134.347 19.2 141.047 21.8 146.247 26.9C151.247 32.1 153.847 39.2 153.847 48.2ZM125.947 32.2C120.447 32.2 117.147 35 116.047 40.6H136.147C134.947 35 131.547 32.2 125.947 32.2ZM178.713 72H160.313V0.799999H178.713V72ZM212.18 73.2C203.78 73.2 197.08 70.8 192.18 65.8C187.18 60.9 184.68 54.4 184.68 46.2C184.68 38 187.18 31.4 192.18 26.5C196.98 21.7 203.68 19.2 212.18 19.2C219.58 19.2 225.58 21.2 230.38 25C235.08 28.8 237.78 34 238.48 40.5H220.38C219.58 36.1 216.88 33.9 212.18 33.9C206.18 33.9 203.18 38 203.18 46.2C203.18 54.4 206.18 58.4 212.18 58.4C217.38 58.4 220.28 55.9 220.78 50.8H238.78C238.38 57.7 235.78 63.1 230.98 67.1C226.08 71.2 219.78 73.2 212.18 73.2ZM290.397 65.8C285.297 70.8 278.497 73.2 270.097 73.2C261.597 73.2 254.797 70.8 249.797 65.8C244.797 60.9 242.297 54.4 242.297 46.2C242.297 38 244.797 31.4 249.797 26.5C254.697 21.7 261.497 19.2 270.097 19.2C278.697 19.2 285.397 21.7 290.397 26.5C295.397 31.5 297.897 38 297.897 46.2C297.897 54.4 295.397 60.9 290.397 65.8ZM260.797 46.2C260.797 54.6 263.897 58.8 270.097 58.8C276.297 58.8 279.397 54.6 279.397 46.2C279.397 37.8 276.297 33.6 270.097 33.6C263.897 33.6 260.797 37.8 260.797 46.2ZM368.667 19.2C374.267 19.2 378.767 21 381.967 24.4C385.167 27.8 386.867 32.7 386.867 39.1V72H368.467V42.5C368.467 39.9 367.967 38 366.967 36.7C365.967 35.5 364.267 34.8 361.967 34.8C359.667 34.8 357.867 35.6 356.567 37C355.167 38.4 354.567 40.6 354.567 43.4V72H336.167V42.5C336.167 39.9 335.667 38 334.667 36.7C333.667 35.5 331.967 34.8 329.667 34.8C327.367 34.8 325.567 35.6 324.267 37C322.867 38.4 322.267 40.6 322.267 43.4V72H303.867V20.4H321.867V27.2C325.867 21.9 330.667 19.2 336.367 19.2C343.967 19.2 349.267 22.2 352.267 28.1C356.967 22.2 362.467 19.2 368.667 19.2ZM448.183 48.2V51.5H410.383C411.583 57.3 414.983 60.2 420.683 60.2C424.883 60.2 427.983 58.7 429.783 55.7H446.983C445.583 61.3 442.483 65.6 437.683 68.6C432.783 71.7 427.083 73.2 420.683 73.2C412.383 73.2 405.683 70.8 400.583 65.8C395.383 60.9 392.883 54.4 392.883 46.2C392.883 38 395.383 31.5 400.483 26.6C405.483 21.7 412.183 19.2 420.483 19.2C428.683 19.2 435.383 21.8 440.583 26.9C445.583 32.1 448.183 39.2 448.183 48.2ZM420.283 32.2C414.783 32.2 411.483 35 410.383 40.6H430.483C429.283 35 425.883 32.2 420.283 32.2ZM511.951 20.4V33.4H502.251V54C502.251 56 502.651 57.2 503.451 57.8C504.251 58.4 505.851 58.6 508.151 58.6H511.951V72C508.751 72.4 506.151 72.5 504.151 72.5C496.851 72.5 491.651 71.3 488.551 68.7C485.351 66.2 483.851 62 483.851 56.2V33.4H476.551V20.4H483.851V4.79999H502.251V20.4H511.951ZM563.053 65.8C557.953 70.8 551.153 73.2 542.753 73.2C534.253 73.2 527.453 70.8 522.453 65.8C517.453 60.9 514.953 54.4 514.953 46.2C514.953 38 517.453 31.4 522.453 26.5C527.353 21.7 534.153 19.2 542.753 19.2C551.353 19.2 558.053 21.7 563.053 26.5C568.053 31.5 570.553 38 570.553 46.2C570.553 54.4 568.053 60.9 563.053 65.8ZM533.453 46.2C533.453 54.6 536.553 58.8 542.753 58.8C548.953 58.8 552.053 54.6 552.053 46.2C552.053 37.8 548.953 33.6 542.753 33.6C536.553 33.6 533.453 37.8 533.453 46.2ZM673.126 21.3L677.726 0.799999H698.626L679.426 72H657.026L652.626 50.9C650.526 40.9 648.926 32.2 647.826 24.9C646.526 32.8 644.926 41.5 642.926 50.9L638.526 72H616.126L596.926 0.799999H617.826L622.426 21.3C625.326 34.3 627.326 43.8 628.426 49.8C629.926 40.5 631.726 31 633.726 21.3L637.926 0.799999H657.626L661.826 21.3C663.826 31 665.526 40.5 667.126 49.8C668.226 43.8 670.226 34.3 673.126 21.3ZM719.033 15.2H701.733V0.799999H719.033V15.2ZM719.533 72H701.133V20.4H719.533V72ZM759.2 58.7H772.5V72H726V60.8L742.4 41C744 39 746.1 36.5 748.7 33.6C747.1 33.7 743.7 33.7 738.5 33.7H726V20.4H771.7V31.6L755.3 51.4C753.7 53.5 751.6 56 749 58.8C750.5 58.8 753.9 58.7 759.2 58.7ZM831.177 72H812.677C811.877 70.4 811.477 68.7 811.377 66.7C807.777 71.1 802.377 73.2 794.977 73.2C789.277 73.2 784.677 71.8 781.177 68.9C777.677 66.1 775.977 62.1 775.977 57.1C775.977 52.3 777.577 48.5 780.877 45.9C784.077 43.3 789.377 41.6 796.577 41L804.877 40.3C807.077 40.1 808.577 39.7 809.577 39C810.577 38.4 811.077 37.4 811.077 36C811.077 33.3 808.877 31.9 804.577 31.9C801.877 31.9 799.977 32.3 798.877 33.1C797.777 33.9 797.077 35.3 796.877 37.4H778.677C779.077 31.3 781.477 26.7 785.677 23.7C789.877 20.7 796.277 19.2 804.777 19.2C820.977 19.2 829.077 24.6 829.077 35.4V62.7C829.077 67.1 829.777 70.2 831.177 72ZM801.277 61.4C807.777 61.4 811.077 58.2 811.077 51.7V48.7C810.277 49.7 808.777 50.4 806.477 50.7L800.577 51.3C796.577 51.7 794.677 53.4 794.677 56.4C794.677 58 795.177 59.2 796.377 60.1C797.577 61 799.177 61.4 801.277 61.4ZM868.091 19.6C869.491 19.6 870.691 19.7 871.791 19.9V36.4H866.991C858.691 36.4 854.591 41 854.591 50V72H836.191V20.4H854.191V30.6C855.991 23.3 860.591 19.6 868.091 19.6ZM910.528 25.9V0.799999H928.928V72H911.028V65.8C907.628 70.8 902.728 73.2 896.328 73.2C889.528 73.2 884.128 70.8 880.228 65.9C876.228 61.1 874.328 54.5 874.328 46.2C874.328 38 876.228 31.4 880.228 26.5C884.128 21.7 889.528 19.2 896.328 19.2C902.328 19.2 907.128 21.5 910.528 25.9ZM892.828 46.6C892.828 54.8 895.828 58.8 901.828 58.8C907.828 58.8 910.828 54.6 910.828 46.2C910.828 37.8 907.828 33.6 901.828 33.6C895.828 33.6 892.828 38 892.828 46.6ZM934.02 18.9V0.899997H952.62V20.2C952.62 30.4 947.22 35.4 936.52 35.4H934.02V26.5H936.72C940.12 26.5 941.92 24.5 941.92 20.5V18.9H934.02ZM980.676 73.6C971.976 73.6 965.576 72.2 961.476 69.4C957.376 66.6 955.076 62 954.676 55.6H972.476C972.676 58 973.476 59.6 974.776 60.5C976.076 61.5 978.176 61.9 981.076 61.9C985.876 61.9 988.376 60.6 988.376 58C988.376 56.8 987.776 55.8 986.676 55.1C985.476 54.4 983.476 53.8 980.576 53.3L973.176 52.2C961.176 50.5 955.276 45.1 955.276 36.1C955.276 30.7 957.376 26.5 961.576 23.6C965.776 20.7 971.976 19.2 980.076 19.2C996.076 19.2 1004.38 25.2 1005.18 37.1H988.276C988.076 33 985.376 30.9 980.076 30.9C975.476 30.9 973.276 32.2 973.276 34.8C973.276 36 973.676 36.9 974.676 37.5C975.676 38.1 977.276 38.6 979.676 38.9L988.476 40.1C994.676 41 999.176 42.8 1002.18 45.4C1005.18 48.1 1006.68 51.8 1006.68 56.5C1006.68 62 1004.38 66.2 999.876 69.2C995.276 72.2 988.876 73.6 980.676 73.6ZM1054.98 72H1036.58V0.799999H1054.98V72ZM1115.65 72H1097.15C1096.35 70.4 1095.95 68.7 1095.85 66.7C1092.25 71.1 1086.85 73.2 1079.45 73.2C1073.75 73.2 1069.15 71.8 1065.65 68.9C1062.15 66.1 1060.45 62.1 1060.45 57.1C1060.45 52.3 1062.05 48.5 1065.35 45.9C1068.55 43.3 1073.85 41.6 1081.05 41L1089.35 40.3C1091.55 40.1 1093.05 39.7 1094.05 39C1095.05 38.4 1095.55 37.4 1095.55 36C1095.55 33.3 1093.35 31.9 1089.05 31.9C1086.35 31.9 1084.45 32.3 1083.35 33.1C1082.25 33.9 1081.55 35.3 1081.35 37.4H1063.15C1063.55 31.3 1065.95 26.7 1070.15 23.7C1074.35 20.7 1080.75 19.2 1089.25 19.2C1105.45 19.2 1113.55 24.6 1113.55 35.4V62.7C1113.55 67.1 1114.25 70.2 1115.65 72ZM1085.75 61.4C1092.25 61.4 1095.55 58.2 1095.55 51.7V48.7C1094.75 49.7 1093.25 50.4 1090.95 50.7L1085.05 51.3C1081.05 51.7 1079.15 53.4 1079.15 56.4C1079.15 58 1079.65 59.2 1080.85 60.1C1082.05 61 1083.65 61.4 1085.75 61.4ZM1138.56 15.2H1121.26V0.799999H1138.56V15.2ZM1139.06 72H1120.66V20.4H1139.06V72ZM1178.93 19.6C1180.33 19.6 1181.53 19.7 1182.63 19.9V36.4H1177.83C1169.53 36.4 1165.43 41 1165.43 50V72H1147.03V20.4H1165.03V30.6C1166.83 23.3 1171.43 19.6 1178.93 19.6ZM1202.63 46.3H1193.13L1187.83 17.4V0.799999H1207.83V17.4L1202.63 46.3ZM1208.03 72H1187.63V52.2H1208.03V72Z" fill="#050404"/>
</svg>
