<svg width="1211" height="144" viewBox="0 0 1211 144" fill="none" xmlns="http://www.w3.org/2000/svg">
<path d="M77.032 60.3L81.632 39.8H102.532L83.332 111H60.932L56.532 89.9C54.432 79.9 52.832 71.2 51.732 63.9C50.432 71.8 48.832 80.5 46.832 89.9L42.432 111H20.032L0.832031 39.8H21.732L26.332 60.3C29.232 73.3 31.232 82.8 32.332 88.8C33.832 79.5 35.632 70 37.632 60.3L41.832 39.8H61.532L65.732 60.3C67.732 70 69.432 79.5 71.032 88.8C72.132 82.8 74.132 73.3 77.032 60.3ZM153.847 87.2V90.5H116.047C117.247 96.3 120.647 99.2 126.347 99.2C130.547 99.2 133.647 97.7 135.447 94.7H152.647C151.247 100.3 148.147 104.6 143.347 107.6C138.447 110.7 132.747 112.2 126.347 112.2C118.047 112.2 111.347 109.8 106.247 104.8C101.047 99.9 98.5469 93.4 98.5469 85.2C98.5469 77 101.047 70.5 106.147 65.6C111.147 60.7 117.847 58.2 126.147 58.2C134.347 58.2 141.047 60.8 146.247 65.9C151.247 71.1 153.847 78.2 153.847 87.2ZM125.947 71.2C120.447 71.2 117.147 74 116.047 79.6H136.147C134.947 74 131.547 71.2 125.947 71.2ZM178.713 111H160.313V39.8H178.713V111ZM212.18 112.2C203.78 112.2 197.08 109.8 192.18 104.8C187.18 99.9 184.68 93.4 184.68 85.2C184.68 77 187.18 70.4 192.18 65.5C196.98 60.7 203.68 58.2 212.18 58.2C219.58 58.2 225.58 60.2 230.38 64C235.08 67.8 237.78 73 238.48 79.5H220.38C219.58 75.1 216.88 72.9 212.18 72.9C206.18 72.9 203.18 77 203.18 85.2C203.18 93.4 206.18 97.4 212.18 97.4C217.38 97.4 220.28 94.9 220.78 89.8H238.78C238.38 96.7 235.78 102.1 230.98 106.1C226.08 110.2 219.78 112.2 212.18 112.2ZM290.397 104.8C285.297 109.8 278.497 112.2 270.097 112.2C261.597 112.2 254.797 109.8 249.797 104.8C244.797 99.9 242.297 93.4 242.297 85.2C242.297 77 244.797 70.4 249.797 65.5C254.697 60.7 261.497 58.2 270.097 58.2C278.697 58.2 285.397 60.7 290.397 65.5C295.397 70.5 297.897 77 297.897 85.2C297.897 93.4 295.397 99.9 290.397 104.8ZM260.797 85.2C260.797 93.6 263.897 97.8 270.097 97.8C276.297 97.8 279.397 93.6 279.397 85.2C279.397 76.8 276.297 72.6 270.097 72.6C263.897 72.6 260.797 76.8 260.797 85.2ZM368.667 58.2C374.267 58.2 378.767 60 381.967 63.4C385.167 66.8 386.867 71.7 386.867 78.1V111H368.467V81.5C368.467 78.9 367.967 77 366.967 75.7C365.967 74.5 364.267 73.8 361.967 73.8C359.667 73.8 357.867 74.6 356.567 76C355.167 77.4 354.567 79.6 354.567 82.4V111H336.167V81.5C336.167 78.9 335.667 77 334.667 75.7C333.667 74.5 331.967 73.8 329.667 73.8C327.367 73.8 325.567 74.6 324.267 76C322.867 77.4 322.267 79.6 322.267 82.4V111H303.867V59.4H321.867V66.2C325.867 60.9 330.667 58.2 336.367 58.2C343.967 58.2 349.267 61.2 352.267 67.1C356.967 61.2 362.467 58.2 368.667 58.2ZM448.183 87.2V90.5H410.383C411.583 96.3 414.983 99.2 420.683 99.2C424.883 99.2 427.983 97.7 429.783 94.7H446.983C445.583 100.3 442.483 104.6 437.683 107.6C432.783 110.7 427.083 112.2 420.683 112.2C412.383 112.2 405.683 109.8 400.583 104.8C395.383 99.9 392.883 93.4 392.883 85.2C392.883 77 395.383 70.5 400.483 65.6C405.483 60.7 412.183 58.2 420.483 58.2C428.683 58.2 435.383 60.8 440.583 65.9C445.583 71.1 448.183 78.2 448.183 87.2ZM420.283 71.2C414.783 71.2 411.483 74 410.383 79.6H430.483C429.283 74 425.883 71.2 420.283 71.2ZM511.951 59.4V72.4H502.251V93C502.251 95 502.651 96.2 503.451 96.8C504.251 97.4 505.851 97.6 508.151 97.6H511.951V111C508.751 111.4 506.151 111.5 504.151 111.5C496.851 111.5 491.651 110.3 488.551 107.7C485.351 105.2 483.851 101 483.851 95.2V72.4H476.551V59.4H483.851V43.8H502.251V59.4H511.951ZM563.053 104.8C557.953 109.8 551.153 112.2 542.753 112.2C534.253 112.2 527.453 109.8 522.453 104.8C517.453 99.9 514.953 93.4 514.953 85.2C514.953 77 517.453 70.4 522.453 65.5C527.353 60.7 534.153 58.2 542.753 58.2C551.353 58.2 558.053 60.7 563.053 65.5C568.053 70.5 570.553 77 570.553 85.2C570.553 93.4 568.053 99.9 563.053 104.8ZM533.453 85.2C533.453 93.6 536.553 97.8 542.753 97.8C548.953 97.8 552.053 93.6 552.053 85.2C552.053 76.8 548.953 72.6 542.753 72.6C536.553 72.6 533.453 76.8 533.453 85.2ZM673.126 60.3L677.726 39.8H698.626L679.426 111H657.026L652.626 89.9C650.526 79.9 648.926 71.2 647.826 63.9C646.526 71.8 644.926 80.5 642.926 89.9L638.526 111H616.126L596.926 39.8H617.826L622.426 60.3C625.326 73.3 627.326 82.8 628.426 88.8C629.926 79.5 631.726 70 633.726 60.3L637.926 39.8H657.626L661.826 60.3C663.826 70 665.526 79.5 667.126 88.8C668.226 82.8 670.226 73.3 673.126 60.3ZM719.033 54.2H701.733V39.8H719.033V54.2ZM719.533 111H701.133V59.4H719.533V111ZM759.2 97.7H772.5V111H726V99.8L742.4 80C744 78 746.1 75.5 748.7 72.6C747.1 72.7 743.7 72.7 738.5 72.7H726V59.4H771.7V70.6L755.3 90.4C753.7 92.5 751.6 95 749 97.8C750.5 97.8 753.9 97.7 759.2 97.7ZM831.177 111H812.677C811.877 109.4 811.477 107.7 811.377 105.7C807.777 110.1 802.377 112.2 794.977 112.2C789.277 112.2 784.677 110.8 781.177 107.9C777.677 105.1 775.977 101.1 775.977 96.1C775.977 91.3 777.577 87.5 780.877 84.9C784.077 82.3 789.377 80.6 796.577 80L804.877 79.3C807.077 79.1 808.577 78.7 809.577 78C810.577 77.4 811.077 76.4 811.077 75C811.077 72.3 808.877 70.9 804.577 70.9C801.877 70.9 799.977 71.3 798.877 72.1C797.777 72.9 797.077 74.3 796.877 76.4H778.677C779.077 70.3 781.477 65.7 785.677 62.7C789.877 59.7 796.277 58.2 804.777 58.2C820.977 58.2 829.077 63.6 829.077 74.4V101.7C829.077 106.1 829.777 109.2 831.177 111ZM801.277 100.4C807.777 100.4 811.077 97.2 811.077 90.7V87.7C810.277 88.7 808.777 89.4 806.477 89.7L800.577 90.3C796.577 90.7 794.677 92.4 794.677 95.4C794.677 97 795.177 98.2 796.377 99.1C797.577 100 799.177 100.4 801.277 100.4ZM868.091 58.6C869.491 58.6 870.691 58.7 871.791 58.9V75.4H866.991C858.691 75.4 854.591 80 854.591 89V111H836.191V59.4H854.191V69.6C855.991 62.3 860.591 58.6 868.091 58.6ZM910.528 64.9V39.8H928.928V111H911.028V104.8C907.628 109.8 902.728 112.2 896.328 112.2C889.528 112.2 884.128 109.8 880.228 104.9C876.228 100.1 874.328 93.5 874.328 85.2C874.328 77 876.228 70.4 880.228 65.5C884.128 60.7 889.528 58.2 896.328 58.2C902.328 58.2 907.128 60.5 910.528 64.9ZM892.828 85.6C892.828 93.8 895.828 97.8 901.828 97.8C907.828 97.8 910.828 93.6 910.828 85.2C910.828 76.8 907.828 72.6 901.828 72.6C895.828 72.6 892.828 77 892.828 85.6ZM934.02 57.9V39.9H952.62V59.2C952.62 69.4 947.22 74.4 936.52 74.4H934.02V65.5H936.72C940.12 65.5 941.92 63.5 941.92 59.5V57.9H934.02ZM980.676 112.6C971.976 112.6 965.576 111.2 961.476 108.4C957.376 105.6 955.076 101 954.676 94.6H972.476C972.676 97 973.476 98.6 974.776 99.5C976.076 100.5 978.176 100.9 981.076 100.9C985.876 100.9 988.376 99.6 988.376 97C988.376 95.8 987.776 94.8 986.676 94.1C985.476 93.4 983.476 92.8 980.576 92.3L973.176 91.2C961.176 89.5 955.276 84.1 955.276 75.1C955.276 69.7 957.376 65.5 961.576 62.6C965.776 59.7 971.976 58.2 980.076 58.2C996.076 58.2 1004.38 64.2 1005.18 76.1H988.276C988.076 72 985.376 69.9 980.076 69.9C975.476 69.9 973.276 71.2 973.276 73.8C973.276 75 973.676 75.9 974.676 76.5C975.676 77.1 977.276 77.6 979.676 77.9L988.476 79.1C994.676 80 999.176 81.8 1002.18 84.4C1005.18 87.1 1006.68 90.8 1006.68 95.5C1006.68 101 1004.38 105.2 999.876 108.2C995.276 111.2 988.876 112.6 980.676 112.6ZM1054.98 111H1036.58V39.8H1054.98V111ZM1115.65 111H1097.15C1096.35 109.4 1095.95 107.7 1095.85 105.7C1092.25 110.1 1086.85 112.2 1079.45 112.2C1073.75 112.2 1069.15 110.8 1065.65 107.9C1062.15 105.1 1060.45 101.1 1060.45 96.1C1060.45 91.3 1062.05 87.5 1065.35 84.9C1068.55 82.3 1073.85 80.6 1081.05 80L1089.35 79.3C1091.55 79.1 1093.05 78.7 1094.05 78C1095.05 77.4 1095.55 76.4 1095.55 75C1095.55 72.3 1093.35 70.9 1089.05 70.9C1086.35 70.9 1084.45 71.3 1083.35 72.1C1082.25 72.9 1081.55 74.3 1081.35 76.4H1063.15C1063.55 70.3 1065.95 65.7 1070.15 62.7C1074.35 59.7 1080.75 58.2 1089.25 58.2C1105.45 58.2 1113.55 63.6 1113.55 74.4V101.7C1113.55 106.1 1114.25 109.2 1115.65 111ZM1085.75 100.4C1092.25 100.4 1095.55 97.2 1095.55 90.7V87.7C1094.75 88.7 1093.25 89.4 1090.95 89.7L1085.05 90.3C1081.05 90.7 1079.15 92.4 1079.15 95.4C1079.15 97 1079.65 98.2 1080.85 99.1C1082.05 100 1083.65 100.4 1085.75 100.4ZM1138.56 54.2H1121.26V39.8H1138.56V54.2ZM1139.06 111H1120.66V59.4H1139.06V111ZM1178.93 58.6C1180.33 58.6 1181.53 58.7 1182.63 58.9V75.4H1177.83C1169.53 75.4 1165.43 80 1165.43 89V111H1147.03V59.4H1165.03V69.6C1166.83 62.3 1171.43 58.6 1178.93 58.6ZM1202.63 85.3H1193.13L1187.83 56.4V39.8H1207.83V56.4L1202.63 85.3ZM1208.03 111H1187.63V91.2H1208.03V111Z" fill="#050404"/>
<ellipse cx="542.5" cy="86.5" rx="13.5" ry="17.5" fill="#050404"/>
</svg>
